<svg width="1413" height="1426" viewBox="0 0 1413 1426" fill="none" xmlns="http://www.w3.org/2000/svg">
<g opacity="0.15">
<path d="M711.572 30.2797L29.3196 712.351L711.572 1394.42L1393.83 712.351L711.572 30.2797Z" fill="#3D3D3D"/>
<path d="M712.917 1425.45L690.768 1404.69L705.995 1389.47L697.689 1379.78L703.226 1374.24L712.917 1382.55L721.222 1374.24L726.76 1379.78L718.454 1389.47L733.681 1404.69L712.917 1425.45Z" fill="#A3A3A3"/>
<path d="M678.309 1390.86L665.85 1378.4L696.305 1347.96L708.763 1360.41L678.309 1390.86ZM653.391 1365.95L640.932 1353.49L671.387 1323.04L683.846 1335.5L653.391 1365.95ZM628.474 1341.04L616.015 1328.58L646.47 1298.13L658.928 1310.59L628.474 1341.04ZM602.172 1316.12L589.713 1303.67L620.168 1273.22L632.627 1285.68L602.172 1316.12ZM577.254 1289.83L564.796 1277.37L595.251 1246.93L607.709 1259.38L577.254 1289.83ZM552.337 1264.92L539.878 1252.46L570.333 1222.02L582.792 1234.47L552.337 1264.92ZM527.419 1240.01L514.961 1227.55L545.416 1197.11L557.874 1209.56L527.419 1240.01ZM501.118 1215.1L488.659 1202.64L519.114 1172.2L531.573 1184.65L501.118 1215.1ZM476.2 1188.8L463.742 1176.35L494.196 1145.9L506.655 1158.36L476.2 1188.8ZM451.283 1163.89L438.824 1151.44L469.279 1120.99L481.737 1133.45L451.283 1163.89ZM424.981 1138.98L412.522 1126.53L442.977 1096.08L455.436 1108.53L424.981 1138.98ZM400.064 1112.69L387.605 1100.23L418.059 1069.78L430.518 1082.24L400.064 1112.69ZM375.146 1087.78L362.687 1075.32L393.142 1044.87L405.601 1057.33L375.146 1087.78ZM350.229 1062.86L337.77 1050.41L368.224 1019.96L380.683 1032.42L350.229 1062.86ZM323.927 1037.95L311.468 1025.5L341.923 995.052L354.381 1007.51L323.927 1037.95ZM299.009 1011.66L286.55 999.203L317.005 968.756L329.464 981.212L299.009 1011.66ZM274.092 986.748L261.633 974.293L292.088 943.846L304.547 956.302L274.092 986.748ZM249.174 961.837L236.715 949.382L267.17 918.935L279.629 931.391L249.174 961.837ZM222.872 936.926L210.414 924.471L240.869 894.024L253.327 906.479L222.872 936.926ZM197.955 910.632L185.496 898.176L215.951 867.729L228.41 880.185L197.955 910.632ZM173.038 885.72L160.579 873.265L191.034 842.819L203.492 855.274L173.038 885.72ZM146.736 860.81L134.277 848.355L164.732 817.908L177.19 830.363L146.736 860.81ZM121.818 835.899L109.36 823.443L139.814 792.997L152.273 805.452L121.818 835.899ZM96.901 809.604L84.4419 797.149L114.897 766.702L127.355 779.158L96.901 809.604ZM71.9833 784.693L59.5246 772.238L89.9795 741.792L102.438 754.246L71.9833 784.693ZM45.6816 759.783L33.2229 747.327L63.6773 716.881L76.1364 729.336L45.6816 759.783Z" fill="#A3A3A3"/>
<path d="M20.7646 733.487L0 712.728L20.7646 691.969L35.9916 707.193L44.2975 697.505L51.219 704.425L41.5291 712.728L51.219 721.032L44.2975 727.952L35.9916 719.647L20.7646 733.487Z" fill="#A3A3A3"/>
<path d="M63.6773 708.578L33.2229 678.132L45.6816 665.677L76.1364 696.123L63.6773 708.578ZM88.5951 683.668L58.1402 653.221L70.5989 640.766L101.054 671.212L88.5951 683.668ZM113.512 658.757L83.0579 628.31L95.5166 615.854L125.971 646.301L113.512 658.757ZM139.814 632.462L109.36 602.015L121.818 589.56L152.273 620.007L139.814 632.462ZM164.732 607.551L134.277 577.104L146.736 564.65L177.19 595.095L164.732 607.551ZM189.649 582.641L159.195 552.194L171.653 539.738L202.108 570.185L189.649 582.641ZM215.951 557.73L185.496 527.283L197.955 514.827L228.41 545.274L215.951 557.73ZM240.869 531.435L210.414 500.988L222.872 488.533L253.327 518.979L240.869 531.435ZM265.786 506.524L235.331 476.077L247.79 463.622L278.245 494.068L265.786 506.524ZM290.704 481.613L260.249 451.167L272.707 438.711L303.162 469.158L290.704 481.613ZM317.005 456.702L286.55 426.256L299.009 413.8L329.464 444.247L317.005 456.702ZM341.923 430.408L311.468 399.961L323.927 387.505L354.381 417.952L341.923 430.408ZM366.84 405.497L336.385 375.05L348.844 362.594L379.299 393.041L366.84 405.497ZM391.758 380.585L361.303 350.14L373.762 337.684L404.216 368.131L391.758 380.585ZM418.059 355.675L387.605 325.228L400.064 312.773L430.518 343.22L418.059 355.675ZM442.977 329.38L412.522 298.934L424.981 286.478L455.436 316.925L442.977 329.38ZM467.894 304.469L437.44 274.023L449.899 261.567L480.353 292.014L467.894 304.469ZM492.812 279.558L462.357 249.112L474.816 236.657L505.271 267.103L492.812 279.558ZM519.114 253.264L488.659 222.817L501.118 210.362L531.573 240.808L519.114 253.264ZM544.031 228.353L513.576 197.907L526.035 185.451L556.49 215.898L544.031 228.353ZM568.948 203.442L538.494 172.995L550.953 160.54L581.408 190.987L568.948 203.442ZM595.251 178.531L564.796 148.084L577.254 135.63L607.709 166.075L595.251 178.531ZM620.168 152.236L589.713 121.79L602.172 109.334L632.627 139.781L620.168 152.236ZM645.085 127.325L614.631 96.8787L627.089 84.4237L657.544 114.87L645.085 127.325ZM670.003 102.415L639.548 71.968L652.007 59.5131L682.462 89.959L670.003 102.415ZM696.305 77.5041L665.85 47.0573L678.309 34.6016L708.763 65.0483L696.305 77.5041Z" fill="#A3A3A3"/>
<path d="M721.222 51.2058L712.917 42.9025L703.226 51.2058L697.689 45.6706L705.995 35.9828L690.768 22.1435L712.917 0L733.681 22.1435L718.454 35.9828L726.76 45.6706L721.222 51.2058Z" fill="#A3A3A3"/>
<path d="M1360.77 708.578L1348.31 696.123L1378.77 665.677L1391.23 678.132L1360.77 708.578ZM1335.85 683.668L1323.39 671.212L1353.85 640.766L1366.31 653.221L1335.85 683.668ZM1310.94 658.757L1298.48 646.301L1328.93 615.854L1341.39 628.31L1310.94 658.757ZM1284.63 632.462L1272.18 620.007L1302.63 589.56L1315.09 602.015L1284.63 632.462ZM1259.72 607.551L1247.26 595.095L1277.71 564.65L1290.17 577.104L1259.72 607.551ZM1234.8 582.641L1222.34 570.185L1252.8 539.738L1265.25 552.194L1234.8 582.641ZM1209.88 557.73L1197.42 545.274L1227.88 514.827L1240.34 527.283L1209.88 557.73ZM1183.58 531.435L1171.12 518.979L1201.58 488.533L1214.03 500.988L1183.58 531.435ZM1158.66 506.524L1146.2 494.068L1176.66 463.622L1189.12 476.077L1158.66 506.524ZM1133.75 481.613L1121.29 469.158L1151.74 438.711L1164.2 451.167L1133.75 481.613ZM1108.83 456.702L1096.37 444.247L1126.82 413.8L1139.28 426.256L1108.83 456.702ZM1082.53 430.408L1070.07 417.952L1100.52 387.505L1112.98 399.961L1082.53 430.408ZM1057.61 405.497L1045.15 393.041L1075.6 362.594L1088.06 375.05L1057.61 405.497ZM1032.69 380.585L1020.23 368.131L1050.69 337.684L1063.15 350.14L1032.69 380.585ZM1007.77 355.675L995.315 343.22L1025.77 312.773L1038.23 325.228L1007.77 355.675ZM981.472 329.38L969.013 316.925L999.467 286.478L1011.93 298.934L981.472 329.38ZM956.554 304.469L944.095 292.014L974.55 261.567L987.009 274.023L956.554 304.469ZM931.637 279.558L919.178 267.103L949.632 236.657L962.091 249.112L931.637 279.558ZM905.335 253.264L892.876 240.808L923.331 210.362L935.789 222.817L905.335 253.264ZM880.417 228.353L867.958 215.898L898.413 185.451L910.872 197.907L880.417 228.353ZM855.5 203.442L843.041 190.987L873.496 160.54L885.955 172.995L855.5 203.442ZM830.582 178.531L818.123 166.075L848.578 135.63L861.037 148.084L830.582 178.531ZM804.28 152.236L791.822 139.781L822.277 109.334L834.735 121.79L804.28 152.236ZM779.363 127.325L766.904 114.87L797.359 84.4237L809.818 96.8787L779.363 127.325ZM754.446 102.415L741.987 89.959L772.442 59.5131L784.9 71.968L754.446 102.415ZM729.528 77.5041L717.069 65.0483L747.524 34.6016L759.983 47.0573L729.528 77.5041Z" fill="#A3A3A3"/>
<path d="M1403.68 733.487L1388.46 719.647L1380.15 727.952L1373.23 721.032L1382.92 712.728L1373.23 704.425L1380.15 697.505L1388.46 707.193L1403.68 691.969L1424.45 712.728L1403.68 733.487Z" fill="#A3A3A3"/>
<path d="M746.14 1390.86L715.685 1360.41L728.144 1347.96L758.599 1378.4L746.14 1390.86ZM771.057 1365.95L740.603 1335.5L753.061 1323.04L783.516 1353.49L771.057 1365.95ZM797.359 1341.04L766.904 1310.59L779.363 1298.13L809.818 1328.58L797.359 1341.04ZM822.277 1316.12L791.822 1285.68L804.28 1273.22L834.735 1303.67L822.277 1316.12ZM847.194 1289.83L816.74 1259.38L829.198 1246.93L859.653 1277.37L847.194 1289.83ZM872.112 1264.92L841.657 1234.47L854.116 1222.02L884.57 1252.46L872.112 1264.92ZM898.413 1240.01L867.959 1209.56L880.417 1197.11L910.872 1227.55L898.413 1240.01ZM923.331 1215.1L892.876 1184.65L905.335 1172.2L935.789 1202.64L923.331 1215.1ZM948.248 1188.8L917.794 1158.36L930.252 1145.9L960.707 1176.35L948.248 1188.8ZM973.166 1163.89L942.711 1133.45L955.17 1120.99L985.624 1151.44L973.166 1163.89ZM999.467 1138.98L969.013 1108.53L981.472 1096.08L1011.93 1126.53L999.467 1138.98ZM1024.39 1112.69L993.93 1082.24L1006.39 1069.78L1036.84 1100.23L1024.39 1112.69ZM1049.3 1087.78L1018.85 1057.33L1031.31 1044.87L1061.76 1075.32L1049.3 1087.78ZM1075.6 1062.86L1045.15 1032.42L1057.61 1019.96L1088.06 1050.41L1075.6 1062.86ZM1100.52 1037.95L1070.07 1007.51L1082.53 995.052L1112.98 1025.5L1100.52 1037.95ZM1125.44 1011.66L1094.98 981.212L1107.44 968.756L1137.9 999.203L1125.44 1011.66ZM1150.36 986.748L1119.9 956.302L1132.36 943.846L1162.82 974.293L1150.36 986.748ZM1176.66 961.837L1146.2 931.391L1158.66 918.935L1189.12 949.382L1176.66 961.837ZM1201.58 936.926L1171.12 906.479L1183.58 894.024L1214.03 924.471L1201.58 936.926ZM1226.49 910.632L1196.04 880.185L1208.5 867.729L1238.95 898.176L1226.49 910.632ZM1251.41 885.72L1220.96 855.274L1233.41 842.819L1263.87 873.265L1251.41 885.72ZM1277.71 860.81L1247.26 830.363L1259.72 817.908L1290.17 848.355L1277.71 860.81ZM1302.63 835.899L1272.18 805.452L1284.63 792.997L1315.09 823.443L1302.63 835.899ZM1327.55 809.604L1297.09 779.158L1309.55 766.702L1340.01 797.149L1327.55 809.604ZM1353.85 784.693L1323.39 754.246L1335.85 741.792L1366.31 772.238L1353.85 784.693ZM1378.77 759.783L1348.31 729.336L1360.77 716.881L1391.23 747.327L1378.77 759.783Z" fill="#A3A3A3"/>
<path d="M712.916 1231.7L689.383 1208.18L705.995 1191.57L696.304 1181.88L703.226 1176.35L712.916 1184.65L721.222 1176.35L728.143 1181.88L719.838 1191.57L735.065 1208.18L712.916 1231.7Z" fill="#A3A3A3"/>
<path d="M675.54 1194.34L661.697 1180.5L694.92 1147.28L708.763 1161.12L675.54 1194.34ZM649.238 1168.04L635.395 1154.2L668.618 1120.99L682.461 1134.83L649.238 1168.04ZM621.552 1140.36L607.709 1126.53L640.932 1093.31L654.775 1107.15L621.552 1140.36ZM595.25 1114.07L581.407 1100.23L614.63 1067.02L628.473 1080.86L595.25 1114.07ZM567.564 1086.39L553.721 1072.55L586.944 1039.34L600.787 1053.18L567.564 1086.39ZM541.262 1060.1L527.419 1046.26L560.643 1013.04L574.486 1026.88L541.262 1060.1ZM513.576 1032.42L499.733 1018.58L532.956 985.364L546.8 999.203L513.576 1032.42ZM487.274 1006.12L473.431 992.283L506.654 959.069L520.497 972.909L487.274 1006.12ZM459.588 978.444L445.745 964.605L478.968 931.391L492.811 945.23L459.588 978.444ZM433.286 952.15L419.443 938.31L452.667 905.095L466.51 918.935L433.286 952.15ZM405.6 924.471L391.757 910.632L424.98 877.417L438.824 891.256L405.6 924.471ZM379.299 898.176L365.456 884.336L398.679 851.122L412.522 864.961L379.299 898.176ZM351.613 870.497L337.769 856.658L370.993 823.443L384.836 837.282L351.613 870.497ZM325.311 844.202L311.468 830.363L344.691 797.149L358.534 810.988L325.311 844.202ZM297.625 816.523L283.782 802.684L317.005 769.47L330.848 783.309L297.625 816.523ZM271.323 790.229L257.48 776.39L290.703 743.175L304.546 757.014L271.323 790.229ZM243.637 762.55L229.793 748.711L263.017 715.496L276.86 729.335L243.637 762.55Z" fill="#A3A3A3"/>
<path d="M217.335 736.257L193.802 712.73L217.335 689.204L232.563 705.811L242.253 696.124L249.174 703.043L239.484 712.73L249.174 722.418L242.253 729.338L232.563 719.65L217.335 736.257Z" fill="#A3A3A3"/>
<path d="M263.017 708.575L229.793 675.361L243.637 661.521L276.86 694.735L263.017 708.575ZM289.319 682.281L256.096 649.066L269.939 635.226L303.162 668.441L289.319 682.281ZM317.005 654.602L283.782 621.387L297.625 607.548L330.848 640.762L317.005 654.602ZM343.307 628.307L310.083 595.092L323.926 581.253L357.15 614.467L343.307 628.307ZM370.993 600.628L337.769 567.413L351.613 553.574L384.836 586.789L370.993 600.628ZM397.294 574.333L364.071 541.119L377.914 527.28L411.137 560.493L397.294 574.333ZM424.98 546.654L391.757 513.44L405.6 499.601L438.824 532.815L424.98 546.654ZM451.282 520.36L418.059 487.145L431.902 473.306L465.125 506.521L451.282 520.36ZM478.968 492.681L445.745 459.466L459.588 445.627L492.811 478.842L478.968 492.681ZM505.27 466.386L472.047 433.172L485.89 419.333L519.113 452.547L505.27 466.386ZM532.956 438.707L499.733 405.493L513.576 391.654L546.8 424.868L532.956 438.707ZM559.258 412.413L526.035 379.198L539.878 365.359L573.101 398.574L559.258 412.413ZM586.944 384.734L553.721 351.52L567.564 337.68L600.787 370.895L586.944 384.734ZM613.246 358.439L580.023 325.224L593.866 311.385L627.089 344.6L613.246 358.439ZM640.932 330.761L607.709 297.546L621.552 283.706L654.775 316.921L640.932 330.761ZM667.234 304.465L634.011 271.251L647.854 257.412L681.077 290.626L667.234 304.465ZM694.92 276.787L661.697 243.573L675.54 229.733L708.763 262.947L694.92 276.787Z" fill="#A3A3A3"/>
<path d="M703.226 250.495L696.304 243.575L705.995 233.887L689.383 217.28L712.916 193.753L735.065 217.28L719.838 233.887L728.143 243.575L721.222 250.495L712.916 240.807L703.226 250.495Z" fill="#A3A3A3"/>
<path d="M1161.43 708.575L1147.59 694.735L1180.81 661.521L1194.65 675.361L1161.43 708.575ZM1135.13 682.281L1121.29 668.441L1154.51 635.226L1168.35 649.066L1135.13 682.281ZM1107.44 654.602L1093.6 640.762L1126.82 607.548L1140.67 621.387L1107.44 654.602ZM1081.14 628.307L1067.3 614.467L1100.52 581.253L1114.37 595.092L1081.14 628.307ZM1053.46 600.628L1039.61 586.789L1072.84 553.574L1086.68 567.413L1053.46 600.628ZM1027.15 574.333L1013.31 560.493L1046.53 527.28L1060.38 541.119L1027.15 574.333ZM999.467 546.654L985.624 532.815L1018.85 499.601L1032.69 513.44L999.467 546.654ZM973.166 520.36L959.323 506.521L992.546 473.306L1006.39 487.145L973.166 520.36ZM945.48 492.681L931.637 478.842L964.86 445.627L978.703 459.466L945.48 492.681ZM919.178 466.386L905.335 452.547L938.558 419.333L952.401 433.172L919.178 466.386ZM891.492 438.707L877.649 424.868L910.872 391.654L924.715 405.493L891.492 438.707ZM865.19 412.413L851.347 398.574L884.57 365.359L898.413 379.198L865.19 412.413ZM837.504 384.734L823.661 370.895L856.884 337.68L870.727 351.52L837.504 384.734ZM811.202 358.439L797.359 344.6L830.583 311.385L844.426 325.224L811.202 358.439ZM783.516 330.761L769.673 316.921L802.896 283.706L816.74 297.546L783.516 330.761ZM757.214 304.465L743.371 290.626L776.594 257.412L790.437 271.251L757.214 304.465ZM729.528 276.787L715.685 262.947L748.908 229.733L762.751 243.573L729.528 276.787Z" fill="#A3A3A3"/>
<path d="M1208.5 736.257L1191.88 719.65L1182.19 729.338L1175.27 722.418L1184.96 712.73L1175.27 703.043L1182.19 696.124L1191.88 705.811L1208.5 689.204L1230.65 712.73L1208.5 736.257Z" fill="#A3A3A3"/>
<path d="M748.908 1194.34L715.685 1161.12L729.528 1147.28L762.751 1180.5L748.908 1194.34ZM776.594 1168.04L743.371 1134.83L757.214 1120.99L790.437 1154.2L776.594 1168.04ZM802.896 1140.36L769.673 1107.15L783.516 1093.31L816.74 1126.53L802.896 1140.36ZM830.583 1114.07L797.359 1080.86L811.202 1067.02L844.426 1100.23L830.583 1114.07ZM856.884 1086.39L823.661 1053.18L837.504 1039.34L870.727 1072.55L856.884 1086.39ZM884.57 1060.1L851.347 1026.88L865.19 1013.04L898.413 1046.26L884.57 1060.1ZM910.872 1032.42L877.649 999.203L891.492 985.364L924.715 1018.58L910.872 1032.42ZM938.558 1006.12L905.335 972.909L919.178 959.069L952.401 992.283L938.558 1006.12ZM964.86 978.444L931.637 945.23L945.48 931.391L978.703 964.605L964.86 978.444ZM992.546 952.15L959.323 918.935L973.166 905.095L1006.39 938.31L992.546 952.15ZM1018.85 924.471L985.624 891.256L999.467 877.417L1032.69 910.632L1018.85 924.471ZM1046.53 898.176L1013.31 864.961L1027.15 851.122L1060.38 884.336L1046.53 898.176ZM1072.84 870.497L1039.61 837.282L1053.46 823.443L1086.68 856.658L1072.84 870.497ZM1100.52 844.202L1067.3 810.988L1081.14 797.149L1114.37 830.363L1100.52 844.202ZM1126.82 816.523L1093.6 783.309L1107.44 769.47L1140.67 802.684L1126.82 816.523ZM1154.51 790.229L1121.29 757.014L1135.13 743.175L1168.35 776.39L1154.51 790.229ZM1180.81 762.55L1147.59 729.335L1161.43 715.496L1194.65 748.711L1180.81 762.55Z" fill="#A3A3A3"/>
<path d="M712.177 1018.73L1018.55 712.438L712.177 406.142L405.8 712.438L712.177 1018.73Z" fill="#A3A3A3"/>
</g>
</svg>
